<svg xmlns="http://www.w3.org/2000/svg" width="35" height="48" viewBox="0 0 35 48"><path fill="#fff" d="M2.469 19.009c.153.154.342.23.568.23.227 0 .419-.076.578-.23.16-.152.24-.344.24-.57 0-.227-.08-.42-.24-.58-.159-.16-.352-.24-.578-.24-.227 0-.415.08-.568.24-.152.16-.229.354-.229.58-.001.227.076.418.229.57zm1.047 11.95v-9.6h-.938v9.6h.938zm3.273 0h.938v-5.76c.425.094.948.141 1.571.141.689 0 1.325-.086 1.909-.26.583-.174 1.086-.438 1.511-.791.424-.352.759-.789 1.004-1.309.245-.522.368-1.127.368-1.82 0-.574-.088-1.08-.264-1.52-.176-.441-.421-.82-.733-1.141-.372-.359-.848-.637-1.426-.83-.579-.193-1.267-.289-2.065-.289-.559 0-1.07.025-1.535.078-.466.055-.892.115-1.277.182v13.319zm.938-12.619c.186-.039.432-.076.738-.109s.672-.051 1.097-.051c.532 0 1.018.064 1.457.189.438.127.817.314 1.137.561.319.246.565.564.737.951.174.387.26.84.26 1.359 0 1.08-.329 1.9-.987 2.459-.658.561-1.586.84-2.782.84-.319 0-.619-.012-.897-.039-.28-.027-.532-.074-.759-.141v-6.019zm14.625 6.56c0-.441-.043-.883-.129-1.33-.087-.447-.25-.85-.489-1.211-.239-.359-.568-.652-.987-.879-.419-.227-.961-.34-1.626-.34-.492 0-.964.062-1.416.19-.452.127-.892.336-1.316.629l.299.701c.333-.227.702-.404 1.107-.529.405-.127.815-.191 1.227-.191.546 0 .977.1 1.297.299.319.199.559.443.718.734.16.293.263.6.309.924.046.326.069.613.069.865v.258c-1.914-.025-3.348.268-4.299.883-.95.615-1.426 1.492-1.426 2.629 0 .32.057.643.17.963.112.322.282.605.509.854.226.246.515.447.867.601.353.154.761.231 1.227.231.372 0 .715-.047 1.027-.141.312-.092.592-.215.838-.369.246-.152.462-.322.648-.51s.339-.373.459-.561h.04l.139 1.359h.878c-.066-.359-.106-.732-.119-1.119-.014-.387-.021-.774-.021-1.16v-3.78zm-.938 3c0 .119-.033.312-.1.58-.08.24-.196.473-.35.699-.152.227-.342.43-.568.609-.226.182-.491.324-.797.432-.307.105-.652.16-1.038.16-.479 0-.911-.16-1.296-.481-.387-.32-.579-.82-.579-1.5 0-.574.153-1.033.459-1.381.306-.346.691-.609 1.157-.789.465-.18.974-.297 1.525-.35.552-.055 1.08-.074 1.586-.061v2.082zm10.686-11.121v6.021h-.039c-.213-.428-.576-.811-1.088-1.15-.512-.34-1.16-.51-1.944-.51-.586 0-1.134.119-1.646.359s-.958.584-1.337 1.029c-.379.447-.678.99-.898 1.631-.22.641-.329 1.359-.329 2.16 0 .732.103 1.396.309 1.99.207.592.489 1.104.849 1.529.359.428.78.758 1.266.99.486.232 1.015.35 1.586.35.865 0 1.576-.203 2.135-.609.559-.406.957-.871 1.197-1.391h.06v1.779h.897c-.026-.332-.047-.699-.06-1.1-.014-.4-.02-.773-.02-1.119v-11.959h-.938zm0 10.34c0 .229-.033.488-.1.781-.213.812-.598 1.43-1.156 1.85-.559.42-1.164.631-1.815.631-.559 0-1.041-.113-1.446-.342-.406-.227-.745-.533-1.017-.92-.273-.387-.476-.826-.608-1.318-.133-.494-.199-1.014-.199-1.561 0-.613.076-1.184.229-1.711.152-.525.372-.982.658-1.369.285-.387.635-.688 1.047-.9s.871-.32 1.377-.32c.372 0 .721.064 1.047.191.326.125.615.293.867.5.253.205.466.453.639.738.173.287.299.59.379.91l.07.43c.02.141.029.285.029.432v1.978z"/></svg>