<svg xmlns="http://www.w3.org/2000/svg" width="58" height="48" viewBox="0 0 58 48"><path fill="#fff" d="M2.721 19.03c.153.153.342.229.568.229.227 0 .419-.076.578-.229.16-.153.24-.344.24-.57 0-.227-.08-.42-.24-.58-.159-.16-.352-.24-.578-.24-.227 0-.415.08-.568.24-.152.16-.23.354-.23.58.001.227.078.417.23.57zm1.047 11.949v-9.6h-.937v9.6h.937zm3.173 0h.938v-5.76c.425.094.948.141 1.571.141.689 0 1.325-.087 1.909-.26.583-.174 1.086-.438 1.511-.791.424-.353.759-.789 1.004-1.31s.368-1.126.368-1.82c0-.573-.088-1.079-.264-1.52-.176-.441-.421-.82-.733-1.14-.372-.36-.848-.637-1.426-.83-.579-.193-1.267-.29-2.065-.29-.559 0-1.07.026-1.535.079-.466.054-.892.114-1.277.181v13.32zm.938-12.619c.187-.04.432-.077.738-.11s.672-.05 1.097-.05c.532 0 1.017.064 1.457.189.438.127.817.313 1.137.561.319.246.565.564.737.95.174.387.26.84.26 1.359 0 1.08-.329 1.9-.987 2.46-.658.561-1.586.84-2.782.84-.319 0-.619-.013-.898-.039-.28-.027-.532-.074-.759-.141v-6.019zm8.816 12.619h.938v-5.912c0-.388.047-.702.14-.942.2-.602.549-1.112 1.048-1.533.498-.421 1.087-.632 1.765-.632.479 0 .881.091 1.207.271.325.181.588.421.788.722.199.301.342.648.429 1.043.086.395.13.805.13 1.232v5.752h.938v-5.86c0-.867-.127-1.56-.379-2.08-.253-.52-.553-.92-.899-1.2-.346-.28-.701-.463-1.066-.55-.366-.087-.662-.13-.888-.13-.758 0-1.4.167-1.925.5-.525.333-.941.8-1.247 1.399h-.04v-6.259h-.938v14.179zm12.551-9.489c-.524.22-.992.547-1.403.979-.411.434-.736.967-.976 1.601-.238.633-.357 1.363-.357 2.19 0 .761.109 1.443.328 2.05.219.607.521 1.127.905 1.56.385.434.839.764 1.363.99.524.227 1.085.34 1.683.34.517 0 1.037-.097 1.562-.29.523-.193 1.001-.497 1.433-.91.432-.413.779-.94 1.045-1.58.266-.64.399-1.413.399-2.319 0-.747-.107-1.424-.318-2.03-.213-.606-.508-1.127-.886-1.56-.379-.433-.833-.767-1.363-1-.531-.233-1.114-.35-1.751-.35-.586-.001-1.14.11-1.664.329zm3.218.88c.432.274.78.617 1.047 1.03.266.413.462.863.589 1.35.126.487.189.95.189 1.39 0 .627-.087 1.2-.26 1.721-.173.52-.412.967-.718 1.34-.306.373-.672.667-1.098.88-.425.214-.884.32-1.376.32-.506 0-.964-.107-1.377-.32-.412-.213-.767-.507-1.066-.88-.3-.373-.532-.816-.698-1.33-.167-.514-.249-1.07-.249-1.67 0-.507.066-1.014.199-1.52.133-.507.342-.96.629-1.359.285-.4.645-.726 1.076-.98.432-.253.947-.38 1.546-.38.613-.002 1.134.135 1.567.408zm5.329 8.609h.938v-5.973c0-.32.047-.601.14-.842.187-.641.528-1.169 1.027-1.584.499-.414 1.087-.621 1.766-.621.479 0 .884.091 1.217.271.332.181.599.421.798.722.199.301.342.651.429 1.053.087.4.13.814.13 1.242v5.732h.938v-5.819c0-.88-.127-1.583-.379-2.11-.253-.526-.556-.93-.908-1.21-.352-.28-.711-.463-1.076-.55-.366-.087-.662-.13-.889-.13-.772 0-1.436.187-1.994.559-.559.374-.965.827-1.217 1.36h-.08v-1.7h-.918c.027.387.047.754.061 1.1.013.348.02.747.02 1.2v7.3zm17.733-4.899l.019-.28v-.32c0-.359-.047-.786-.14-1.279-.093-.493-.272-.963-.539-1.41-.266-.446-.635-.83-1.106-1.15-.472-.319-1.094-.479-1.865-.479-.599 0-1.153.12-1.665.36-.512.239-.955.586-1.326 1.039-.373.454-.666.997-.878 1.631-.213.633-.319 1.35-.319 2.149 0 .707.102 1.357.306 1.95.204.594.496 1.104.878 1.53.381.427.841.76 1.38 1 .538.239 1.146.359 1.825.359.797 0 1.439-.075 1.925-.224.485-.149.82-.276 1.007-.381l-.239-.735c-.267.12-.602.24-1.008.36-.405.12-.927.18-1.565.18-.479 0-.935-.076-1.366-.23-.433-.154-.811-.405-1.137-.754-.327-.348-.586-.793-.778-1.336-.193-.543-.289-1.209-.289-2l6.88.02zm-6.822-.8c.04-.369.126-.748.259-1.137.132-.389.324-.744.576-1.066.252-.323.562-.59.934-.801.371-.211.808-.316 1.312-.316.557 0 1.014.109 1.372.326.357.218.644.49.854.82.212.329.358.689.438 1.077.079.389.119.754.119 1.097h-5.864z"/></svg>