<?xml version="1.0" encoding="utf-8"?>
<!-- Generator: Adobe Illustrator 18.0.0, SVG Export Plug-In . SVG Version: 6.00 Build 0)  -->
<!DOCTYPE svg PUBLIC "-//W3C//DTD SVG 1.1//EN" "http://www.w3.org/Graphics/SVG/1.1/DTD/svg11.dtd">
<svg version="1.1" xmlns="http://www.w3.org/2000/svg" xmlns:xlink="http://www.w3.org/1999/xlink" x="0px" y="0px" width="48px"
	 height="48px" viewBox="0 0 48 48" enable-background="new 0 0 48 48" xml:space="preserve">
<g id="Global_Nav_Small_Icons">
</g>
<g id="Global_Nav_Small_1_">
	<path id="Music" fill="#FFFFFF" d="M13.402,24.638c-0.026-0.502-0.053-1.024-0.08-1.568c-0.026-0.542-0.053-1.075-0.079-1.598
		c-0.027-0.524-0.05-1.019-0.069-1.489c-0.02-0.47-0.03-0.891-0.03-1.26h-0.06c-0.225,0.754-0.48,1.528-0.764,2.321
		c-0.285,0.794-0.612,1.689-0.983,2.682l-2.759,7.266H7.923l-2.581-7.088c-0.371-1.046-0.695-1.981-0.973-2.809
		c-0.278-0.826-0.517-1.617-0.715-2.371H3.595c-0.013,0.793-0.044,1.734-0.09,2.818c-0.046,1.085-0.109,2.185-0.189,3.296
		L2.9,30.991H1.987L2.94,17.61h1.072l2.819,7.663c0.304,0.873,0.576,1.648,0.814,2.322c0.238,0.676,0.45,1.35,0.635,2.025h0.06
		c0.172-0.637,0.374-1.291,0.605-1.966c0.231-0.676,0.52-1.462,0.864-2.362l2.898-7.683h1.131l0.894,13.381h-0.933L13.402,24.638z
		 M24.777,28.669c0,0.423,0.006,0.827,0.02,1.21c0.013,0.384,0.033,0.754,0.06,1.112h-0.893v-1.648h-0.08
		c-0.119,0.213-0.27,0.431-0.456,0.655c-0.186,0.225-0.41,0.426-0.675,0.606c-0.265,0.179-0.566,0.324-0.903,0.437
		c-0.338,0.113-0.718,0.169-1.142,0.169c-0.305,0-0.642-0.053-1.012-0.159c-0.371-0.106-0.715-0.308-1.033-0.606
		c-0.318-0.296-0.585-0.717-0.804-1.26c-0.218-0.542-0.327-1.251-0.327-2.123v-5.6h0.933v5.412c0,0.518,0.043,0.991,0.129,1.423
		c0.086,0.432,0.226,0.803,0.418,1.113c0.192,0.313,0.444,0.558,0.757,0.737c0.312,0.18,0.701,0.268,1.165,0.268
		c0.346,0,0.665-0.056,0.957-0.169c0.293-0.111,0.555-0.261,0.788-0.447c0.232-0.186,0.431-0.392,0.597-0.616
		c0.167-0.227,0.296-0.458,0.389-0.697c0.053-0.146,0.096-0.308,0.129-0.487c0.033-0.178,0.049-0.36,0.049-0.547v-5.989h0.934
		V28.669z M27.528,29.74c0.251,0.158,0.556,0.307,0.913,0.446c0.357,0.14,0.748,0.208,1.171,0.208c0.754,0,1.307-0.175,1.658-0.526
		c0.351-0.349,0.526-0.776,0.526-1.279c0-0.516-0.159-0.937-0.477-1.261s-0.814-0.625-1.489-0.903
		c-0.768-0.305-1.357-0.664-1.767-1.083c-0.41-0.417-0.616-0.922-0.616-1.518c0-0.345,0.066-0.671,0.199-0.983
		c0.132-0.31,0.324-0.585,0.576-0.824c0.25-0.237,0.555-0.427,0.913-0.565c0.357-0.138,0.761-0.208,1.211-0.208
		c0.424,0,0.814,0.06,1.171,0.179c0.357,0.119,0.655,0.258,0.894,0.416l-0.377,0.774c-0.159-0.118-0.388-0.244-0.686-0.377
		c-0.298-0.132-0.678-0.198-1.142-0.198c-0.595,0-1.048,0.166-1.359,0.496c-0.311,0.331-0.467,0.715-0.467,1.152
		c0,0.489,0.159,0.87,0.477,1.141c0.317,0.271,0.801,0.54,1.449,0.805c0.754,0.304,1.346,0.672,1.776,1.102
		c0.431,0.43,0.646,1.01,0.646,1.737c0,0.834-0.292,1.495-0.874,1.984c-0.583,0.49-1.35,0.735-2.302,0.735
		c-0.464,0-0.9-0.06-1.31-0.179c-0.411-0.119-0.768-0.278-1.072-0.476L27.528,29.74z M34.772,18.562
		c0-0.224,0.076-0.417,0.228-0.574c0.152-0.159,0.34-0.24,0.565-0.24c0.225,0,0.417,0.081,0.576,0.24
		c0.159,0.157,0.238,0.351,0.238,0.574c0,0.226-0.08,0.414-0.238,0.566c-0.159,0.152-0.351,0.229-0.576,0.229
		c-0.225,0-0.414-0.076-0.565-0.229C34.848,18.977,34.772,18.788,34.772,18.562z M35.109,30.991v-9.53h0.934v9.53H35.109z
		 M45.74,30.627c-0.198,0.104-0.529,0.223-0.992,0.359c-0.463,0.136-1.032,0.203-1.708,0.203c-0.675,0-1.287-0.116-1.836-0.349
		c-0.549-0.23-1.02-0.561-1.41-0.992c-0.39-0.431-0.692-0.942-0.902-1.538c-0.212-0.596-0.318-1.258-0.318-1.985
		c0-0.753,0.12-1.442,0.357-2.064c0.238-0.622,0.569-1.154,0.993-1.598c0.424-0.443,0.93-0.791,1.519-1.044
		c0.589-0.25,1.234-0.376,1.935-0.376c0.569,0,1.069,0.062,1.5,0.184c0.43,0.123,0.737,0.249,0.923,0.378l-0.337,0.788
		c-0.225-0.133-0.517-0.257-0.874-0.377c-0.357-0.119-0.794-0.179-1.31-0.179c-0.623,0-1.168,0.117-1.638,0.35
		c-0.47,0.232-0.863,0.542-1.181,0.928c-0.318,0.385-0.556,0.835-0.715,1.346c-0.159,0.513-0.238,1.048-0.238,1.606
		c0,0.624,0.09,1.193,0.268,1.704c0.179,0.513,0.433,0.948,0.764,1.308c0.33,0.359,0.721,0.635,1.171,0.828
		c0.45,0.192,0.946,0.288,1.489,0.288c0.556,0,1.012-0.06,1.37-0.179c0.357-0.118,0.668-0.231,0.933-0.337L45.74,30.627z"/>
</g>
<g id="Bag">
</g>
<g id="Global_Nav_Large_Icons">
</g>
<g id="Global_Nav_Large_1_">
</g>
<g id="Guides">
</g>
<g id="NOTES">
	<rect x="-10" y="-17" fill="#F7009F" width="10" height="17"/>
	<rect x="-10" y="31" fill="#F7009F" width="10" height="17"/>
</g>
</svg>
