<svg xmlns="http://www.w3.org/2000/svg" width="68" height="48" viewBox="0 0 68 48"><path fill="#fff" d="M1.703 30.319c.173.121.383.234.63.34.246.107.51.201.79.281.279.08.569.142.87.189.3.047.59.07.87.07.693 0 1.304-.1 1.83-.301.526-.199.967-.469 1.32-.809.354-.342.616-.734.79-1.182.173-.445.26-.916.26-1.41 0-.492-.069-.932-.21-1.318-.141-.387-.35-.734-.63-1.041-.28-.307-.628-.586-1.041-.84-.413-.254-.893-.492-1.44-.721-.948-.373-1.642-.783-2.082-1.229-.44-.445-.66-1.04-.66-1.788 0-.266.05-.543.149-.83.101-.287.26-.549.478-.789.22-.24.513-.438.878-.59.366-.154.814-.23 1.347-.23.559 0 1.037.07 1.437.209.398.141.69.277.877.41l.359-.799c-.227-.146-.559-.287-.998-.42-.438-.133-.977-.201-1.615-.201-.559 0-1.074.084-1.546.25-.472.168-.878.4-1.217.701-.339.299-.605.66-.798 1.08-.193.42-.289.877-.289 1.369 0 .934.306 1.693.917 2.279.612.588 1.436 1.068 2.474 1.441.958.387 1.643.82 2.055 1.299.412.481.618 1.102.618 1.861 0 .84-.282 1.516-.848 2.029-.565.514-1.347.77-2.343.77-.56 0-1.084-.08-1.576-.24-.492-.16-.925-.373-1.297-.639l-.359.799zm16.989-8.92h-.938v6.033c0 .188-.017.371-.05.553-.034.18-.077.344-.131.49-.094.24-.224.475-.391.701-.167.229-.367.436-.6.621-.234.188-.498.338-.791.451-.294.115-.614.172-.961.172-.468 0-.858-.092-1.172-.271-.314-.18-.567-.428-.761-.742-.193-.315-.334-.688-.421-1.123-.085-.434-.128-.91-.128-1.432v-5.453h-.939v5.641c0 .881.11 1.594.329 2.141.22.547.489.969.809 1.269.318.299.664.504 1.037.609.372.107.711.16 1.017.16.425 0 .808-.057 1.147-.17.339-.113.642-.26.907-.439.267-.18.492-.383.679-.611.186-.227.339-.445.458-.658h.08v1.658h.897c-.026-.359-.047-.733-.06-1.119-.013-.387-.019-.793-.019-1.221v-7.26zm3.204 13.561h.938l-.003-5.48h.043c.318.561.752.99 1.303 1.291.551.299 1.164.449 1.841.449.556 0 1.093-.108 1.61-.32.517-.213.969-.535 1.353-.969.385-.434.692-.975.925-1.621.231-.647.349-1.402.349-2.27 0-.721-.097-1.377-.289-1.971-.192-.592-.464-1.104-.816-1.529-.351-.426-.771-.76-1.263-1-.49-.24-1.034-.359-1.631-.359-.796 0-1.479.172-2.05.519-.569.346-1.027.84-1.372 1.481h-.079v-1.781h-.938c.025.441.046.9.06 1.381.013.48.02 1.039.02 1.68v10.499zm.937-9.619c0-.135.017-.271.05-.41l.09-.41c.199-.801.588-1.424 1.167-1.871.579-.445 1.214-.67 1.905-.67.531 0 1 .113 1.406.34.405.226.748.531 1.027.91.279.381.488.816.628 1.311.14.494.21 1.006.21 1.539 0 .641-.074 1.225-.22 1.75-.147.527-.362.984-.649 1.371-.286.387-.639.688-1.058.9-.419.213-.895.32-1.426.32-.719 0-1.356-.215-1.915-.641-.559-.428-.938-1.02-1.138-1.781-.053-.213-.079-.465-.079-.76v-1.898zm9.997 9.619h.938l-.002-5.48h.042c.318.561.753.99 1.304 1.291.55.299 1.163.449 1.84.449.557 0 1.094-.108 1.611-.32.517-.213.968-.535 1.353-.969.385-.434.692-.975.925-1.621.232-.647.349-1.402.349-2.27 0-.721-.097-1.377-.288-1.971-.193-.592-.465-1.104-.816-1.529-.352-.426-.772-.76-1.264-1-.49-.24-1.034-.359-1.631-.359-.796 0-1.479.172-2.049.519-.57.346-1.028.84-1.373 1.481h-.079v-1.781h-.938c.026.441.046.9.06 1.381.013.48.02 1.039.02 1.68v10.499zm.938-9.619c0-.135.018-.271.051-.41l.089-.41c.2-.801.589-1.424 1.167-1.871.579-.445 1.214-.67 1.905-.67.531 0 1 .113 1.406.34.405.226.748.531 1.027.91.279.381.488.816.628 1.311.141.494.21 1.006.21 1.539 0 .641-.073 1.225-.22 1.75-.146.527-.362.984-.648 1.371-.286.387-.639.688-1.057.9-.419.213-.895.32-1.426.32-.719 0-1.357-.215-1.916-.641-.559-.428-.938-1.02-1.137-1.781-.054-.213-.08-.465-.08-.76v-1.898zm12.177-3.83c-.524.219-.992.547-1.403.979-.411.434-.736.967-.975 1.602-.239.633-.358 1.363-.358 2.189 0 .76.109 1.443.328 2.049.219.608.52 1.127.905 1.561.385.434.839.764 1.363.99.524.227 1.085.34 1.683.34.517 0 1.037-.096 1.562-.289.524-.193 1.001-.498 1.433-.91.432-.414.779-.941 1.045-1.58.266-.641.398-1.414.398-2.32 0-.746-.106-1.424-.318-2.029-.213-.608-.508-1.127-.886-1.561-.379-.434-.833-.768-1.363-1-.53-.234-1.114-.35-1.751-.35-.585-.001-1.139.108-1.663.329zm3.218.879c.432.273.78.617 1.047 1.031.266.412.462.863.589 1.35.126.486.189.949.189 1.389 0 .627-.087 1.201-.26 1.721-.173.52-.412.967-.718 1.34-.306.373-.672.668-1.098.881-.425.213-.884.32-1.376.32-.506 0-.964-.107-1.376-.32-.413-.213-.768-.508-1.067-.881-.299-.373-.532-.816-.698-1.33-.167-.514-.249-1.07-.249-1.67 0-.506.066-1.014.199-1.52.133-.508.342-.961.629-1.359.285-.4.644-.727 1.076-.981.433-.254.947-.381 1.546-.381.613-.001 1.134.136 1.567.41zm5.155 8.609h.938v-5.318c0-.334.026-.635.08-.9.119-.76.399-1.393.837-1.9.439-.506.984-.76 1.637-.76h.238l.22.02v-.92l-.19-.029-.169-.01c-.652 0-1.211.207-1.676.619-.466.414-.805.92-1.018 1.52h-.06v-1.92h-.897c.026.453.046.924.06 1.41.013.486.019.963.019 1.43l-.019 6.758zm7.252-11.355v1.777h-1.576v.738h1.576v6.08c0 .428.032.824.097 1.191.065.365.179.68.342.939.163.26.386.463.67.609s.646.221 1.085.221c.532 0 .958-.074 1.277-.221l-.101-.719c-.119.039-.266.072-.438.1-.173.027-.379.039-.618.039-.506 0-.861-.17-1.067-.51-.206-.34-.31-.83-.31-1.469v-6.262h2.653v-.738h-2.653v-2.139l-.937.364z"/></svg>