<svg xmlns="http://www.w3.org/2000/svg" width="52" height="48" viewBox="0 0 52 48"><path fill="#fff" d="M5.539 30.979l2.233-7.779c.307-.973.553-1.812.738-2.519.187-.707.332-1.381.439-2.02h.039c.094.639.22 1.312.38 2.02.159.707.372 1.553.638 2.539l1.995 7.76h.897l3.951-13.48h-.977l-2.135 7.559c-.253.854-.482 1.654-.688 2.4-.206.748-.382 1.5-.528 2.26h-.04c-.107-.719-.259-1.477-.459-2.27l-.618-2.449-1.954-7.5h-.919l-2.154 7.559c-.253.895-.489 1.734-.708 2.521-.22.787-.383 1.5-.488 2.139h-.041c-.133-.652-.293-1.369-.478-2.149-.187-.781-.392-1.611-.618-2.49l-1.936-7.58h-.958l3.491 13.479h.898zm18.572-6.059c0-.441-.043-.883-.129-1.33-.087-.447-.249-.85-.489-1.211-.239-.359-.568-.652-.987-.879-.419-.227-.961-.34-1.626-.34-.492 0-.964.062-1.416.189-.452.127-.891.336-1.316.629l.299.701c.332-.227.701-.404 1.107-.529.405-.127.815-.191 1.227-.191.545 0 .977.1 1.297.299.318.199.559.443.718.734.16.293.263.6.31.924.047.326.069.613.069.865v.258c-1.915-.025-3.348.267-4.298.883-.951.615-1.427 1.492-1.427 2.629 0 .32.057.643.17.963.112.322.282.605.509.854.226.246.515.447.867.602.352.154.762.23 1.227.23.372 0 .715-.047 1.027-.141.312-.092.592-.215.838-.369.246-.152.462-.322.648-.51.187-.188.339-.373.459-.561h.04l.14 1.359h.877c-.066-.359-.106-.732-.119-1.119-.014-.387-.021-.774-.021-1.16v-3.779zm-.937 3c0 .119-.033.312-.1.58-.08.24-.196.473-.349.699-.153.227-.343.43-.568.609-.226.182-.492.324-.799.432-.306.105-.651.16-1.037.16-.479 0-.91-.16-1.296-.48-.386-.32-.579-.82-.579-1.5 0-.574.153-1.033.459-1.381.306-.346.691-.609 1.157-.789.465-.18.974-.297 1.526-.35.551-.055 1.08-.074 1.585-.061v2.081zm4.289-8.297v1.777h-1.576v.738h1.576v6.08c0 .428.032.824.098 1.191.066.365.179.68.342.939.163.26.386.463.67.609.284.146.646.221 1.085.221.531 0 .957-.074 1.276-.221l-.1-.719c-.12.039-.267.072-.438.1-.174.027-.379.039-.619.039-.505 0-.86-.17-1.066-.51-.207-.34-.31-.83-.31-1.469v-6.262h2.653v-.736h-2.654v-2.14l-.937.363zm11.593 10.236c-.266.107-.578.221-.938.34-.359.121-.817.18-1.376.18-.546 0-1.044-.096-1.496-.291-.452-.193-.845-.473-1.177-.834-.333-.361-.588-.801-.768-1.316-.18-.516-.27-1.088-.27-1.717 0-.562.079-1.103.239-1.619.159-.516.399-.967.718-1.356.319-.389.715-.701 1.187-.936.472-.234 1.021-.351 1.646-.351.52 0 .958.061 1.317.18.358.121.651.248.878.381l.339-.795c-.187-.129-.496-.256-.928-.381-.433-.123-.935-.184-1.506-.184-.705 0-1.354.127-1.945.379-.592.254-1.101.603-1.525 1.051-.427.447-.759.983-.997 1.609-.24.627-.359 1.32-.359 2.08 0 .734.106 1.4.318 2 .213.6.516 1.117.908 1.551.393.434.864.766 1.416 1 .552.232 1.167.35 1.846.35.678 0 1.249-.068 1.715-.205.465-.137.798-.256.997-.361l-.239-.755zm2.561 1.12h.938v-5.912c0-.387.046-.701.14-.941.199-.602.549-1.113 1.047-1.533.499-.422 1.087-.633 1.766-.633.479 0 .881.092 1.207.271.325.18.588.42.788.721.199.301.342.648.429 1.043.086.395.129.805.129 1.233v5.752h.938v-5.859c0-.867-.126-1.561-.379-2.08-.252-.52-.552-.92-.897-1.199-.346-.281-.701-.463-1.067-.551-.365-.086-.661-.129-.887-.129-.759 0-1.4.166-1.926.5-.525.332-.94.799-1.246 1.398h-.04v-6.26h-.938v14.179z"/></svg>