<?xml version="1.0" encoding="UTF-8" standalone="no"?>
<svg width="32px" height="32px" viewBox="-4 2 32 32" version="1.1" xmlns="http://www.w3.org/2000/svg" xmlns:xlink="http://www.w3.org/1999/xlink">
    <path fill="none" stroke="#FFFFFF" stroke-linecap="round" stroke-linejoin="round" d="M17.4,6.5c2.8,1.2,4.8,4.2,4.8,7.6v3.6c0,1.1,0.7,2.5,1.6,3.2c0,0,0.8,0.3,0.8,1.1c0,0,0,0.9-1,0.9H5.5c-1,0-1-0.9-1-0.9c0-0.8,0.8-1.1,0.8-1.1c0.9-0.6,1.6-2,1.6-3.1v-3.6c0-4.5,3.5-8.2,7.7-8.2V2.6"></path>
    <path fill="none" stroke="#FFFFFF" stroke-linecap="round" stroke-linejoin="round" d="M11.9,24.7c0.3,0.9,1.4,1.8,2.8,1.9c1.3-0.1,2.4-1,2.8-1.9"></path>
</svg>