<?xml version="1.0" encoding="UTF-8" standalone="no"?>
<svg width="26px" height="26px" viewBox="-2 4 26 26" version="1.1" xmlns="http://www.w3.org/2000/svg" xmlns:xlink="http://www.w3.org/1999/xlink">
    <path fill="none" stroke="#FFFFFF" stroke-linecap="round" stroke-linejoin="round" d="M22.4,12.4c-0.2-0.4-0.4-0.8-0.6-1.2l-3.6,0.2c-0.4-0.5-0.9-1-1.4-1.4L17,6.3c-0.8-0.4-1.7-0.8-2.5-1.1l-2.3,2.5c-0.7-0.1-1.5-0.1-2.3-0.1L7.7,5.2C7.2,5.3,6.8,5.5,6.4,5.6C6,5.8,5.5,6,5.1,6.3l0.1,3.1c-0.7,0.5-1.4,1.1-2,1.8L0.3,11c-0.5,0.8-0.8,1.7-1.1,2.6l2,1.9c-0.2,1-0.2,2-0.1,2.9l-2,1.8c0.1,0.5,0.3,0.9,0.5,1.4s0.4,0.9,0.6,1.3L3,22.8c0.6,0.8,1.3,1.5,2.1,2.1l-0.2,2.8c0.8,0.5,1.7,0.8,2.6,1.1l2-2.2c0.9,0.1,1.8,0.1,2.7,0l2,2.3c0.5-0.1,0.9-0.3,1.4-0.5c0.4-0.2,0.8-0.4,1.2-0.6l-0.1-3.3c0.6-0.5,1.1-1,1.6-1.6l3.4,0.2c0.5-0.8,0.8-1.6,1.1-2.5l-2.6-2.4c0.1-0.7,0.1-1.3,0-2l2.7-2.4C22.7,13.3,22.5,12.8,22.4,12.4L22.4,12.4z"></path>
    <circle fill="none" stroke="#FFFFFF" cx="11" cy="17" r="5.2"></circle>
</svg>